# xmcd CD database file
#
# Track frame offsets:
#	150
#	24945
#	50252
#	81970
#	103217
#	125315
#	154950
#	187145
#	208762
#	222802
#
# Disc length: 3411 seconds
#
# Revision: 0
# Processed by: cddbd v1.5.1PL0 Copyright (c) Steve Scherf et al.
# Submitted via: CDex 1.51
#
DISCID=8a0d510a
DTITLE=Jon Mayer - Full Circle
DYEAR=1900
DGENRE=Jazz
TTITLE0=Round Up the Usual Suspects
TTITLE1=Night and Day
TTITLE2=Day Dream
TTITLE3=For All We Know
TTITLE4=From Now On
TTITLE5=Full Circle
TTITLE6=Stolen Moments
TTITLE7=Falling in Love With Love
TTITLE8=Lament
TTITLE9=I Should Care
EXTD=
EXTT0=
EXTT1=
EXTT2=
EXTT3=
EXTT4=
EXTT5=
EXTT6=
EXTT7=
EXTT8=
EXTT9=
PLAYORDER=
